<?xml version="1.0" encoding="UTF-8"?>
<svg width="100pt" height="100pt" version="1.1" viewBox="0 0 100 100" xmlns="http://www.w3.org/2000/svg">
 <g>
  <path d="m94.375 17.91c0-0.22266-0.019531-0.44922-0.039062-0.66406-0.085938-0.46875-0.21484-0.91797-0.38281-1.3672-0.15625-0.33203-0.33203-0.64453-0.53906-0.94531-0.019531-0.019532-0.03125-0.046875-0.046874-0.070313-0.007813-0.007812-0.019532-0.03125-0.03125-0.039062-0.007813-0.007813-0.007813-0.019531-0.019532-0.03125-0.007812-0.007813-0.019531-0.019531-0.019531-0.03125-0.11719-0.13672-0.23438-0.28125-0.37109-0.41016-0.039062-0.039062-0.078125-0.078124-0.125-0.125-0.125-0.125-0.25391-0.24219-0.38281-0.35156-0.039063-0.03125-0.078125-0.058594-0.10938-0.078125-0.30469-0.20312-0.61719-0.38281-0.94531-0.53906-0.35938-0.125-0.73438-0.22266-1.1133-0.29297-0.058594-0.007813-0.10938 0.007812-0.16406 0-0.26563-0.019532-0.52734 0.019531-0.78906 0.019531l-76.797 0.003906c-0.58594 0-1.1914-0.070312-1.7891-0.058593-0.28125 0-0.55469-0.007813-0.83984 0.007812v-0.007812c-0.42969 0.078124-0.84766 0.1875-1.2695 0.33203-0.30469 0.14844-0.60547 0.30469-0.89062 0.48828 0 0-0.007813 0-0.007813 0.007812-0.019531 0.019532-0.046875 0.058594-0.070313 0.078126-0.14844 0.125-0.21484 0.22266-0.24219 0.22266-0.11719 0.097656-0.22266 0.19531-0.33203 0.30469-0.03125 0.03125-0.21484 0.22266-0.35156 0.38281-0.046875 0.078125-0.10938 0.15625-0.15625 0.23438-0.1875 0.29297-0.35156 0.58594-0.50781 0.89844-0.16406 0.4375-0.28125 0.89844-0.37109 1.3594-0.039063 0.4375-0.039063 0.87891 0 1.3203 0.019531 0.085937 0.03125 0.17578 0.046875 0.25391 0.019531 0.078125 0.039062 0.15625 0.058594 0.24219 0.007812 0.046874 0.03125 0.085937 0.039062 0.13672 0.007813 0.039063 0.019532 0.070313 0.03125 0.097656 0.007813 0.039063 0.019532 0.078126 0.03125 0.10938 0 0.007812 0.007813 0.019531 0.007813 0.039062 0.007812 0.03125 0.019531 0.046875 0.03125 0.078125 0 0 0 0.007813 0.007812 0.019531v0.019532c0.019531 0.046874 0.03125 0.097656 0.046875 0.15625 0 0.007812 0.007813 0.019531 0.007813 0.03125 0 0.007812 0.007812 0.019531 0.007812 0.03125 0.03125 0.070312 0.058594 0.125 0.097657 0.1875 0.03125 0.046874 0.046874 0.097656 0.078124 0.14844 0 0.007813 0.007813 0.019531 0.019532 0.03125 0.019531 0.039063 0.046875 0.085937 0.070312 0.125 0.007813 0.019531 0.03125 0.039063 0.039063 0.058594 0.019531 0.039062 0.046875 0.078125 0.070312 0.11719 0.039063 0.070313 0.10938 0.16406 0.15625 0.23438v0.03125s0-0.03125-0.007812-0.03125v0.007813l0.007812 0.019531h-0.007812 0.019531s0.007812-0.019531 0.007812-0.007813c0 0 0.007813-0.007812 0.007813 0 0 0 0.007813 0 0.007813 0.007813 0.007812 0.007813 0.019531 0.03125 0.039062 0.046875l0.03125 0.03125s0 0.007812 0.007812 0.007812c0.007813 0.007813 0.007813 0.019532 0.019532 0.019532 0.007812 0.019531 0.019531 0.03125 0.03125 0.046875l0.007812 0.007812c0.007813 0.007813 0.007813 0.007813 0.019532 0.019531 0 0 0 0.007813 0.007812 0.007813 0.15625 0.16406 0.30469 0.34375 0.46875 0.49609 0.32031 0.3125 0.65625 0.625 0.99609 0.92969 0.95703 0.84766 1.9531 1.6602 2.9297 2.4805 0.097657 0.078125 0.19531 0.16406 0.29297 0.25391 0.097656 0.078125 0.19531 0.16406 0.29297 0.25391 3.3477 2.8906 6.6992 5.7812 10.039 8.6719 3.9648 3.4297 7.9375 6.8555 11.906 10.281 2.1484 1.8438 4.2891 3.7031 6.4375 5.5547 1.1016 0.95703 2.2188 1.9141 3.3203 2.8711 0.39844 0.35156 0.8125 0.69531 1.2109 1.0469l0.007813 0.007812c0.52734 0.44922 1.0469 0.91016 1.5742 1.3594 0.21484 0.1875 0.42969 0.37109 0.64453 0.55469 0.039062 0.03125 0.070312 0.058594 0.10938 0.097656 0.039062 0.03125 0.078125 0.058594 0.10938 0.085938 0.046875 0.03125 0.085937 0.046874 0.125 0.078124 0.10938 0.078126 0.22266 0.14844 0.34375 0.21484 0.078125 0.046875 0.15625 0.085938 0.23438 0.125 0.11719 0.058594 0.23438 0.125 0.35156 0.17578 0.42188 0.14844 0.83984 0.26562 1.2812 0.35156 0.4375 0.03125 0.87891 0.03125 1.3203 0 0.4375-0.078125 0.85938-0.19531 1.2812-0.35156 0.29297-0.14844 0.57812-0.30469 0.85938-0.48047-0.019531 0 0.046875-0.070313 0.32031-0.22266 1.4922-1.2695 2.9688-2.5586 4.4453-3.8359 3.3984-2.9375 6.8047-5.8789 10.203-8.8086 3.9648-3.4297 7.9297-6.8438 11.895-10.273 3.0664-2.6484 6.1328-5.293 9.1992-7.9492 0.019531-0.007813 0.03125-0.03125 0.046875-0.039063 0.039062-0.039062 0.078125-0.070312 0.11719-0.10937l0.019531-0.007813c0.058594-0.046875 0.11719-0.10938 0.1875-0.15625 0.1875-0.16406 0.38281-0.32031 0.56641-0.48828 0.03125-0.019532 0.058593-0.046875 0.078125-0.070313 0.63281-0.54688 1.2695-1.1016 1.9141-1.6484 0.019532-0.007813 0.03125-0.03125 0.046875-0.039063 0.007813-0.007812 0.007813-0.007812 0.019531-0.019531 0.1875-0.15625 0.37109-0.32031 0.54688-0.48047 0.10937-0.085937 0.20312-0.17578 0.30469-0.27344 0.23438-0.22266 0.44922-0.46094 0.66406-0.69531l0.019531-0.019531c0.03125-0.046875 0.058593-0.085938 0.085937-0.125 0.046875-0.070312 0.085938-0.13672 0.125-0.20312 0.007813-0.007813 0.007813-0.019531 0.019532-0.03125 0.007812-0.007813 0.007812-0.019531 0.019531-0.03125 0.03125-0.046875 0.058593-0.097656 0.085937-0.14844 0.039063-0.070313 0.078125-0.14844 0.11719-0.21484 0.019531-0.039063 0.039062-0.070313 0.058594-0.10938 0.019531-0.039063 0.039062-0.070313 0.058593-0.10938 0.007813-0.019532 0.019531-0.039063 0.03125-0.058594 0.007813-0.039062 0.03125-0.078125 0.046875-0.10938 0.007813-0.019531 0.019532-0.03125 0.019532-0.046875v-0.019531-0.019531c0-0.007813 0-0.019532 0.007812-0.019532 0.007812-0.007812 0.03125-0.019531 0.058594-0.03125 0-0.039062 0.019531-0.070312 0.03125-0.097656 0.03125-0.085938 0.039062-0.16406 0.058594-0.25391 0.019531-0.058594 0.03125-0.125 0.046874-0.1875 0.007813-0.039063 0.019532-0.070313 0.039063-0.10938 0-0.007813 0-0.007813 0.007813-0.019531 0.007812-0.019532 0.007812-0.039063 0.019531-0.058594h-0.019531c0.019531-0.078125 0.019531-0.14844 0.03125-0.22266-0.03125-0.24609-0.03125-0.46094-0.023438-0.67578z"/>
  <path d="m94.727 77.023v-49.504c-0.95703 0.82812-1.9219 1.6602-2.8828 2.4922-0.019531 0.007812-0.03125 0.03125-0.046875 0.039062-0.14844 0.125-0.29297 0.25391-0.4375 0.38281-0.8125 0.70312-1.6211 1.4062-2.4414 2.1016-0.019531 0.007813-0.03125 0.03125-0.046875 0.039063-2.5195 2.168-5.0312 4.3438-7.5469 6.5156-3.7891 3.2734-7.5703 6.5352-11.359 9.8047-3.0664 2.6484-6.1328 5.293-9.1992 7.9375-0.89844 0.77344-1.7969 1.5547-2.6953 2.3242-0.73437 0.63281-1.4531 1.2812-2.2656 1.8164-1.8438 1.2109-4.2383 1.8438-6.4453 1.6719-2.5-0.19531-4.6875-1.1328-6.6016-2.7539-0.35937-0.3125-0.71094-0.61719-1.0742-0.92969-2.375-2.0508-4.7461-4.1016-7.1211-6.1523-3.6133-3.1172-7.2188-6.2305-10.828-9.3555-3.6914-3.1836-7.375-6.3672-11.062-9.5508-0.52734-0.46094-1.0625-0.91797-1.5938-1.375-0.019531-0.007813-0.03125-0.03125-0.046875-0.039063-0.95703-0.82812-1.9219-1.6602-2.8828-2.4922-0.019532-0.007813-0.03125-0.03125-0.046876-0.039063-0.95703-0.82812-1.9219-1.6602-2.8828-2.4922-0.019531-0.007813-0.03125-0.03125-0.046875-0.039063v52.391c0 0.8125 0.070313 1.6328 0.33203 2.4023 0.96875 2.8438 3.5352 4.8047 6.5508 4.8438 0.63281 0.007812 1.2891 0.03125 1.9336 0.03125h71.25c0.84766 0 1.6992-0.03125 2.5586-0.03125 3.8477-0.007812 6.9336-3.0859 6.9531-6.9414 0.007812-1.0195-0.023438-2.0664-0.023438-3.0977z"/>
 </g>
</svg>
