<?xml version="1.0" encoding="UTF-8"?>
<svg width="100pt" height="100pt" version="1.1" viewBox="0 0 100 100" xmlns="http://www.w3.org/2000/svg">
 <path d="m25.039 71.059c-4.1328 1.8359-7.1992 6.125-7.1992 11.027 0 6.7383 5.5117 12.098 12.098 12.098 6.7383 0 12.098-5.5117 12.098-12.098 0-4.9023-2.9102-9.1875-7.1992-11.027v-19.906c6.5859 5.668 15.926 9.4961 26.035 9.8008 1.8359 4.2891 6.125 7.1992 11.027 7.1992 6.7383 0 12.098-5.5117 12.098-12.098 0-6.7383-5.5117-12.098-12.098-12.098-4.9023 0-9.0352 2.9102-11.027 7.043-14.09-0.61328-26.188-9.4961-26.188-19.754v-1.6836c4.1328-1.8359 7.1992-6.125 7.1992-11.027 0-6.7383-5.5117-12.098-12.098-12.098-6.7383 0-12.098 5.5117-12.098 12.098 0 4.9023 2.9102 9.1875 7.1992 11.027v7.8086-6.125m-0.76562-12.715c0-3.3672 2.7578-5.9727 5.9727-5.9727 3.3672 0 5.9727 2.7578 5.9727 5.9727 0 3.3672-2.7578 5.9727-5.9727 5.9727-3.3711 0-5.9727-2.7578-5.9727-5.9727zm11.941 63.551c0 3.3672-2.7578 5.9727-5.9727 5.9727-3.3672 0-5.9727-2.7578-5.9727-5.9727 0-3.3672 2.7578-5.9727 5.9727-5.9727 3.2188 0 5.9727 2.6055 5.9727 5.9727zm36.145-20.062c-3.3672 0-5.9727-2.7578-5.9727-5.9727 0-3.3672 2.7578-5.9727 5.9727-5.9727 3.3672 0 5.9727 2.7578 5.9727 5.9727-0.003907 3.2188-2.7578 5.9727-5.9727 5.9727z"/>
</svg>
