<?xml version="1.0" encoding="UTF-8"?>
<svg width="100pt" height="100pt" version="1.1" viewBox="0 0 100 100" xmlns="http://www.w3.org/2000/svg">
 <path d="m36.234 58.262-0.37891-42.797c0.007812-9.4258 0.37109-11.664 9.7969-9.9258l33.84 5.7266c10.266 1.8945 10.695 3.957 10.648 14.309l-0.85156 54.746c0.42578 9.0977-9.0664 14.684-17.219 14.684-9.6211 0-17.422-6.5742-17.422-14.684 0-13.031 16.562-17.574 26.383-12.594v-24.156l-36.34-6.5547v33.848c-0.65234 9.1445-8.5742 14.684-17.422 14.684-9.6211 0-17.422-6.5742-17.422-14.684 0-13.031 16.562-17.57 26.383-12.594zm11.5-31.047 29.441 5.625c4.9844 1.1133 4.168-10.23 0-10.98l-29.441-5.6836c-4.2109-0.75781-3.625 10.477 0 11.039z" fill-rule="evenodd"/>
</svg>
