<?xml version="1.0" encoding="UTF-8"?>
<svg width="100pt" height="100pt" version="1.1" viewBox="0 0 100 100" xmlns="http://www.w3.org/2000/svg">
 <path d="m80.117 30.719h-15.129v-5.8594c0-3.7031-3.0156-6.7188-6.7188-6.7188h-16.539c-3.7031 0-6.7188 3.0156-6.7188 6.7188v5.8594h-15.129c-3.7695 0-6.8242 3.0547-6.8242 6.8242v37.492c0 3.7695 3.0547 6.8242 6.8242 6.8242h60.234c3.7695 0 6.8242-3.0547 6.8242-6.8242v-37.492c0-3.7695-3.0547-6.8242-6.8242-6.8242zm-39.109-5.8555c0-0.39844 0.32422-0.72266 0.72266-0.72266h16.539c0.39844 0 0.72266 0.32422 0.72266 0.72266v5.8594l-17.984-0.003906z"/>
</svg>
